<svg xmlns="http://www.w3.org/2000/svg" viewBox="0 0 720 312.95"><defs><style>.a{fill:#64ad6e;}</style></defs><title>ygor</title><path class="a" d="M567.72,323v6.74h-5.78v-6.44l2.78-9.08,2.34,0.44L566.18,323h1.54Zm8.35,0v6.74h-5.78v-6.44l2.78-9.08,2.34,0.44L574.53,323h1.54Z" transform="translate(-152 -99.53)"/><path class="a" d="M595.61,369.68H589.9V352.54l-9.66-34.12h5.71l6.81,26.43,6.74-26.43h5.71l-9.59,34.12v17.13Z" transform="translate(-152 -99.53)"/><path class="a" d="M624.31,368.28q-2.49,2.49-7.21,2.49a9.16,9.16,0,0,1-7.47-3.33q-2.75-3.33-2.75-12v-11q0-8.71,2.75-12a9.45,9.45,0,0,1,7.72-3.33q5,0,7.54,3.29t2.56,12.08v7.83h-15v4.17q0,9.81,4.69,9.81a4.18,4.18,0,0,0,3.51-1.61q1.24-1.61,1.76-6l4.91,0.81Q626.8,365.79,624.31,368.28Zm-11.86-24.89v4.17h9.37v-4.17q0-9.81-4.61-9.81T612.45,343.39Z" transform="translate(-152 -99.53)"/><path class="a" d="M648.69,360.82a7.34,7.34,0,0,0-3.07-6.37l-5.05-3.59q-5.64-3.73-5.64-11.06,0-5.93,2.53-8.35a11,11,0,0,1,13.58-.15q2.42,2.27,2.93,8.27l-5.05,1q-0.37-7.1-4.5-7.1t-4.14,5.78q0,4.69,3.07,7l4.83,3.37a25.09,25.09,0,0,1,2.89,2.23,9.86,9.86,0,0,1,2.05,3.29,13.57,13.57,0,0,1,1,5.38q0,5.64-2.64,7.94a10.47,10.47,0,0,1-7.14,2.31,9.33,9.33,0,0,1-7.07-2.67q-2.56-2.67-3.15-9.41l5.2-1q0.29,4.76,1.5,6.66a3.75,3.75,0,0,0,3.33,1.9Q648.69,366.31,648.69,360.82Z" transform="translate(-152 -99.53)"/><path class="a" d="M660.19,369.68v-6.74H666v6.44l-2.86,9.08-2.2-.44,0.88-8.35h-1.61Z" transform="translate(-152 -99.53)"/><path class="a" d="M689.91,369.68H684.2V318.42h8.93l6.22,35.51,6.3-35.51h8.93v51.25h-5.71V323.4l-6.22,35.29h-6.52l-6.22-35.29v46.27Z" transform="translate(-152 -99.53)"/><path class="a" d="M724.54,348a7.82,7.82,0,0,1,11.86.4v-7.69q0-7-4.39-7-3.73,0-7.1,4.32l-2-4.1a14,14,0,0,1,4.28-3.44,11.13,11.13,0,0,1,5.31-1.39q9.52,0,9.52,12.89v27.75H738.6l-1.17-4.76a8.1,8.1,0,0,1-2.67,4.39,6.65,6.65,0,0,1-4.21,1.46,7.28,7.28,0,0,1-6-2.53q-2.05-2.53-2.05-9.48v-1.32Q722.49,350.49,724.54,348Zm7.18,18.19a4,4,0,0,0,3.33-1.54q1.21-1.54,1.35-5.56v-2q-0.15-4.32-1.35-6a3.88,3.88,0,0,0-3.33-1.68q-3.66,0-3.66,7v2.86Q728.06,366.16,731.72,366.16Z" transform="translate(-152 -99.53)"/><path class="a" d="M763.79,360.82a7.34,7.34,0,0,0-3.07-6.37l-5.05-3.59Q750,347.12,750,339.8q0-5.93,2.53-8.35a11,11,0,0,1,13.58-.15q2.42,2.27,2.93,8.27l-5.05,1q-0.37-7.1-4.5-7.1t-4.14,5.78q0,4.69,3.07,7l4.83,3.37a25.09,25.09,0,0,1,2.89,2.23,9.86,9.86,0,0,1,2.05,3.29,13.57,13.57,0,0,1,1,5.38q0,5.64-2.64,7.94a10.47,10.47,0,0,1-7.14,2.31,9.33,9.33,0,0,1-7.07-2.67q-2.56-2.67-3.15-9.41l5.2-1q0.29,4.76,1.5,6.66a3.75,3.75,0,0,0,3.33,1.9Q763.79,366.31,763.79,360.82Z" transform="translate(-152 -99.53)"/><path class="a" d="M773.67,334.68v-4.54h3.88l2-9.74h3.37v9.74h5.2v4.54h-5.2v27.53q0,3.88,2.12,3.88a4.9,4.9,0,0,0,2.93-1.17l1.1,4.32a9.64,9.64,0,0,1-5.13,1.54q-6.59,0-6.59-9.74V334.68h-3.66Z" transform="translate(-152 -99.53)"/><path class="a" d="M810.72,368.28q-2.49,2.49-7.21,2.49a9.16,9.16,0,0,1-7.47-3.33q-2.75-3.33-2.75-12v-11q0-8.71,2.75-12a9.45,9.45,0,0,1,7.72-3.33q5,0,7.54,3.29t2.56,12.08v7.83h-15v4.17q0,9.81,4.69,9.81a4.18,4.18,0,0,0,3.51-1.61q1.24-1.61,1.76-6l4.91,0.81Q813.21,365.79,810.72,368.28Zm-11.86-24.89v4.17h9.37v-4.17q0-9.81-4.61-9.81T798.86,343.39Z" transform="translate(-152 -99.53)"/><path class="a" d="M834.3,329l1.46,0.07-0.44,6.22a4.43,4.43,0,0,0-2-.51q-5.57,0-5.64,11.57v23.28h-5.64V330.14h3.44l1.61,6.74Q828.59,329,834.3,329Z" transform="translate(-152 -99.53)"/><path class="a" d="M839.42,369.68v-6.74h5.78v6.74h-5.78Z" transform="translate(-152 -99.53)"/><path class="a" d="M851.36,321.79v-6.74h5.78v6.44l-2.86,9.08-2.2-.44,0.88-8.35h-1.61Zm8.35,0v-6.74h5.78v6.44l-2.86,9.08-2.2-.44,0.88-8.35H859.7Z" transform="translate(-152 -99.53)"/><path class="a" d="M342.1,146.17L335.32,307.8a131.88,131.88,0,0,1-6.51,37.15,83.09,83.09,0,0,1-16.41,28.88,70.59,70.59,0,0,1-26.85,18.58q-16.14,6.51-37.56,6.51a86.73,86.73,0,0,1-24.14-3.53,74.3,74.3,0,0,1-22.1-10.44A57.61,57.61,0,0,1,185.63,368a43.24,43.24,0,0,1-6.24-23.32q0-10.31,6.51-16.95t16.81-6.64a19.1,19.1,0,0,1,14.64,6.51,21.45,21.45,0,0,1,6,14.92,16.6,16.6,0,0,1-3.39,10,21.13,21.13,0,0,1-8,6.78,37.57,37.57,0,0,0,15.46,11.93,47.84,47.84,0,0,0,19,4.07q14.1,0,22.64-7.05a46.69,46.69,0,0,0,13.15-17.63,88.52,88.52,0,0,0,6.37-22.92q1.76-12.34,2.58-23.19,0.54-11.12.68-21.83t0.68-21.56q-12.75,3.25-23.73,5.56a116.8,116.8,0,0,1-24,2.31,105.16,105.16,0,0,1-25.36-3,61,61,0,0,1-21.15-9.49,47.53,47.53,0,0,1-14.51-16.81q-5.43-10.3-5.42-24.95a55.1,55.1,0,0,1,1.49-11q1.49-6.92,3.53-14.24t4.2-14.1q2.17-6.78,3.25-10.3L152,122.31l93,32q-1.63,4.61-4.47,13.29t-5.83,18q-3,9.36-5.15,17.9t-2.17,12.61a20.53,20.53,0,0,0,3.25,11.66,28.35,28.35,0,0,0,8.27,8.14A35.88,35.88,0,0,0,250,240.68a50.61,50.61,0,0,0,12.07,1.49A105,105,0,0,0,278,240.81a62,62,0,0,0,15.59-4.34l0.54-67.53-51.53-33.36Z" transform="translate(-152 -99.53)"/><path class="a" d="M530,127.73a24.75,24.75,0,0,1-1.9,9.49,29,29,0,0,1-5.15,8.27,27.07,27.07,0,0,1-7.59,6,19.36,19.36,0,0,1-9.22,2.31q-10,0-16.14-7.05a24.47,24.47,0,0,1-6.1-16.54v-1.08c-0.91-.18-1.86.41-2.85,1.76a43.09,43.09,0,0,0-3,4.75q-1.49,2.71-2.71,5.29t-1.76,3.66a71.9,71.9,0,0,1,25.9,24.54,64.78,64.78,0,0,1,3.53,61.42,71.89,71.89,0,0,1-16.27,22.1,75.61,75.61,0,0,1-23.46,14.64,74.15,74.15,0,0,1-27.66,5.29q-5.43,0-10.85-.41A64.18,64.18,0,0,1,414,270.37q-3.8,2.44-3.8,5.69t5.29,5a61.45,61.45,0,0,0,11.93,2.58q6.64,0.81,13,1.08t8.54,0.27a116.21,116.21,0,0,1,28.47,5.15A77.83,77.83,0,0,1,502,302.78a61.52,61.52,0,0,1,17.08,20.47q6.37,12.2,6.37,28.47,0,17.08-8.68,28.75a65.36,65.36,0,0,1-21.83,18.71,103.49,103.49,0,0,1-28.75,10.17,141.64,141.64,0,0,1-59.12,0,103.39,103.39,0,0,1-28.75-10.17,65.28,65.28,0,0,1-21.83-18.71q-8.68-11.66-8.68-28.75t9.49-28.2a80,80,0,0,1,23.86-18.71,40.47,40.47,0,0,1-12.2-7.86q-5.15-4.88-5.15-13a18.89,18.89,0,0,1,2-8.81,21.91,21.91,0,0,1,5.42-6.78,36.26,36.26,0,0,1,7.59-4.88,69.9,69.9,0,0,1,8.27-3.39,74.66,74.66,0,0,1-23.59-24.27,64.51,64.51,0,0,1-2.44-61,70.33,70.33,0,0,1,17.36-22.1,83.67,83.67,0,0,1,53.42-19.53,87,87,0,0,1,20.07,2.44A106.1,106.1,0,0,1,459,122.71a68,68,0,0,1,9.22-11.53,44.62,44.62,0,0,1,11.66-8.41,31.68,31.68,0,0,1,14.37-3.25,43.26,43.26,0,0,1,12.34,1.9A39,39,0,0,1,518.1,107a33.09,33.09,0,0,1,8.54,8.81A21.23,21.23,0,0,1,530,127.73Zm-46.92,224a37.26,37.26,0,0,0-3.8-17.36,35.47,35.47,0,0,0-10.3-12.2A43.94,43.94,0,0,0,454.1,315a66.5,66.5,0,0,0-34.71,0,42.42,42.42,0,0,0-14.78,7.19,36,36,0,0,0-10.17,12.2,41.57,41.57,0,0,0,0,34.71,34.74,34.74,0,0,0,10.17,12.07,44,44,0,0,0,14.78,7.05,66.5,66.5,0,0,0,34.71,0A45.58,45.58,0,0,0,469,381.15a34.22,34.22,0,0,0,10.3-12.07A37.27,37.27,0,0,0,483.12,351.73ZM467.93,203.12a69,69,0,0,0-2.17-16.41,56.85,56.85,0,0,0-6.64-16.14,41.59,41.59,0,0,0-11.25-12.2,28.66,28.66,0,0,0-32,0,43.21,43.21,0,0,0-11.39,12.2,57.42,57.42,0,0,0-6.92,16,64.41,64.41,0,0,0-2.3,16.54,65.9,65.9,0,0,0,2.3,16.68,59.62,59.62,0,0,0,6.78,16.14,40.82,40.82,0,0,0,11.39,12.2A27.26,27.26,0,0,0,431.86,253a26.66,26.66,0,0,0,16-4.88,41,41,0,0,0,11.25-12.34,59,59,0,0,0,6.64-16.14A68.28,68.28,0,0,0,467.93,203.12Z" transform="translate(-152 -99.53)"/><path class="a" d="M709.29,208.54q0,18.71-9.36,31.59A72,72,0,0,1,676.07,261a114.83,114.83,0,0,1-31.59,11.66,155.39,155.39,0,0,1-32.54,3.66,140.13,140.13,0,0,1-31.59-3.8,104.68,104.68,0,0,1-30.1-11.93,70.52,70.52,0,0,1-22.51-21q-8.82-12.88-8.81-31.05,0-19.79,9.49-32.81a68.68,68.68,0,0,1,24-20.61,107.65,107.65,0,0,1,32-10.58,201,201,0,0,1,33.76-3,135.59,135.59,0,0,1,31.05,3.8,104,104,0,0,1,29.56,11.8,68,68,0,0,1,22,20.75Q709.29,190.65,709.29,208.54ZM664.54,208a43.11,43.11,0,0,0-3.66-17.9,43.68,43.68,0,0,0-10-14.1,45.43,45.43,0,0,0-14.78-9.22,49.15,49.15,0,0,0-17.9-3.25,69.43,69.43,0,0,0-19.53,2.85A60.79,60.79,0,0,0,581,174.64a43,43,0,0,0-12.75,13.69,36.38,36.38,0,0,0-4.88,18.85,52.43,52.43,0,0,0,3.39,19.25,41.86,41.86,0,0,0,9.76,14.91A44.17,44.17,0,0,0,591.59,251a52.45,52.45,0,0,0,19.25,3.39A82.59,82.59,0,0,0,632,251.8a47,47,0,0,0,17.08-8.27A38.47,38.47,0,0,0,660.47,229Q664.54,220.21,664.54,208Z" transform="translate(-152 -99.53)"/><path class="a" d="M872,141.83q0,11.12-6.78,18.31t-18.17,7.19q-8.41,0-13-3.12a34,34,0,0,1-7.73-7.05,83.46,83.46,0,0,0-6.24-7.05q-3.12-3.11-8.81-3.12-10,0-16,6.37a41.4,41.4,0,0,0-8.95,15.05,24.71,24.71,0,0,0-.41,5.15q-0.14,4.61-.41,11.66t-0.54,15.46q-0.27,8.41-.54,16t-0.54,13.42q-0.27,5.83-.27,7.73l65.9,23.86-156.75,16q14.1-8.95,28.2-17.76t28.2-17.49l-10-94.64-60.47-16.27,109.29-23.86-0.54,24.95a156.75,156.75,0,0,1,23.46-13.42,63.12,63.12,0,0,1,26.71-5.56,48.86,48.86,0,0,1,10,1.08,44.48,44.48,0,0,1,9.76,3.25,27.48,27.48,0,0,1,8.14,5.83,22.14,22.14,0,0,1,5.15,8.81A34.6,34.6,0,0,1,872,141.83Z" transform="translate(-152 -99.53)"/><circle class="a" cx="279.55" cy="121.25" r="11.74"/><circle class="a" cx="482.92" cy="102.79" r="15.35"/></svg>