<?xml version="1.0" encoding="utf-8"?>
<!-- Generator: Adobe Illustrator 19.2.0, SVG Export Plug-In . SVG Version: 6.00 Build 0)  -->
<svg version="1.1" id="Layer_1" xmlns="http://www.w3.org/2000/svg" xmlns:xlink="http://www.w3.org/1999/xlink" x="0px" y="0px"
	 viewBox="0 0 1024 512" style="enable-background:new 0 0 1024 512;" xml:space="preserve">
<style type="text/css">
	.st0{display:none;}
	.st1{display:inline;}
	.st2{fill:#64AD6E;}
	.st3{display:inline;fill:#39B54A;}
	.st4{font-family:'PathwayGothicOne-Book';}
	.st5{font-size:73.2179px;}
	.st6{font-family:'FontdinerSwanky';}
	.st7{font-size:277.6949px;}
	.st8{display:inline;fill:#64AD6E;}
</style>
<g class="st0">
	<path class="st1" d="M540.1,598.8l-243.4,48.3c0,0-583.8-714.9,117.8-873.4C1058.8-371.9,540.1,598.8,540.1,598.8z"/>
	<path class="st1" d="M410,283V126.6c0,0,391.6-241.6,457.6,113.5C934.5,600.2,410,283,410,283z"/>
	<path class="st1" d="M934.3,206.2c10.3-17.9-134.1-77.6-134.1-77.6l-60.4,104.5C739.7,233.2,923.9,224.1,934.3,206.2z"/>
</g>
<g>
	<g>
		<path class="st2" d="M567.7,323v6.7h-5.8v-6.4l2.8-9.1l2.3,0.4l-0.9,8.3H567.7z M576.1,323v6.7h-5.8v-6.4l2.8-9.1l2.3,0.4
			l-0.9,8.3H576.1z"/>
		<path class="st2" d="M595.6,369.7h-5.7v-17.1l-9.7-34.1h5.7l6.8,26.4l6.7-26.4h5.7l-9.6,34.1V369.7z"/>
		<path class="st2" d="M624.3,368.3c-1.7,1.7-4.1,2.5-7.2,2.5c-3.1,0-5.6-1.1-7.5-3.3c-1.8-2.2-2.7-6.2-2.7-12v-11
			c0-5.8,0.9-9.8,2.7-12c1.8-2.2,4.4-3.3,7.7-3.3c3.3,0,5.8,1.1,7.5,3.3c1.7,2.2,2.6,6.2,2.6,12.1v7.8h-15v4.2
			c0,6.5,1.6,9.8,4.7,9.8c1.5,0,2.7-0.5,3.5-1.6c0.8-1.1,1.4-3.1,1.8-6l4.9,0.8C627,363.7,626,366.6,624.3,368.3z M612.5,343.4v4.2
			h9.4v-4.2c0-6.5-1.5-9.8-4.6-9.8C614,333.6,612.5,336.8,612.5,343.4z"/>
		<path class="st2" d="M648.7,360.8c0-2.8-1-4.9-3.1-6.4l-5.1-3.6c-3.8-2.5-5.6-6.2-5.6-11.1c0-4,0.8-6.7,2.5-8.3
			c1.7-1.6,4-2.4,6.8-2.4c2.9,0,5.1,0.8,6.7,2.3c1.6,1.5,2.6,4.3,2.9,8.3l-5.1,1c-0.2-4.7-1.7-7.1-4.5-7.1c-2.8,0-4.1,1.9-4.1,5.8
			c0,3.1,1,5.4,3.1,7l4.8,3.4c1.2,0.8,2.2,1.6,2.9,2.2c0.7,0.7,1.4,1.8,2.1,3.3c0.7,1.5,1,3.3,1,5.4c0,3.8-0.9,6.4-2.6,7.9
			c-1.8,1.5-4.1,2.3-7.1,2.3s-5.4-0.9-7.1-2.7c-1.7-1.8-2.8-4.9-3.1-9.4l5.2-1c0.2,3.2,0.7,5.4,1.5,6.7c0.8,1.3,1.9,1.9,3.3,1.9
			C647.2,366.3,648.7,364.5,648.7,360.8z"/>
		<path class="st2" d="M660.2,369.7v-6.7h5.8v6.4l-2.9,9.1l-2.2-0.4l0.9-8.3H660.2z"/>
		<path class="st2" d="M689.9,369.7h-5.7v-51.3h8.9l6.2,35.5l6.3-35.5h8.9v51.3h-5.7v-46.3l-6.2,35.3h-6.5l-6.2-35.3V369.7z"/>
		<path class="st2" d="M724.5,348c1.4-1.7,3.3-2.5,5.9-2.5c2.5,0,4.5,1,6,2.9v-7.7c0-4.7-1.5-7-4.4-7c-2.5,0-4.9,1.4-7.1,4.3l-2-4.1
			c1.1-1.4,2.5-2.5,4.3-3.4c1.7-0.9,3.5-1.4,5.3-1.4c6.3,0,9.5,4.3,9.5,12.9v27.7h-3.4l-1.2-4.8c-0.5,2-1.4,3.4-2.7,4.4
			c-1.2,1-2.6,1.5-4.2,1.5c-2.6,0-4.6-0.8-6-2.5c-1.4-1.7-2.1-4.8-2.1-9.5v-1.3C722.5,352.8,723.2,349.7,724.5,348z M731.7,366.2
			c1.4,0,2.5-0.5,3.3-1.5c0.8-1,1.3-2.9,1.4-5.6v-2c-0.1-2.9-0.5-4.9-1.4-6c-0.8-1.1-1.9-1.7-3.3-1.7c-2.4,0-3.7,2.3-3.7,7v2.9
			C728.1,363.8,729.3,366.2,731.7,366.2z"/>
		<path class="st2" d="M763.8,360.8c0-2.8-1-4.9-3.1-6.4l-5.1-3.6c-3.8-2.5-5.6-6.2-5.6-11.1c0-4,0.8-6.7,2.5-8.3
			c1.7-1.6,4-2.4,6.8-2.4c2.9,0,5.1,0.8,6.7,2.3c1.6,1.5,2.6,4.3,2.9,8.3l-5.1,1c-0.2-4.7-1.7-7.1-4.5-7.1c-2.8,0-4.1,1.9-4.1,5.8
			c0,3.1,1,5.4,3.1,7l4.8,3.4c1.2,0.8,2.2,1.6,2.9,2.2c0.7,0.7,1.4,1.8,2.1,3.3c0.7,1.5,1,3.3,1,5.4c0,3.8-0.9,6.4-2.6,7.9
			c-1.8,1.5-4.1,2.3-7.1,2.3s-5.4-0.9-7.1-2.7c-1.7-1.8-2.8-4.9-3.1-9.4l5.2-1c0.2,3.2,0.7,5.4,1.5,6.7c0.8,1.3,1.9,1.9,3.3,1.9
			C762.3,366.3,763.8,364.5,763.8,360.8z"/>
		<path class="st2" d="M773.7,334.7v-4.5h3.9l2-9.7h3.4v9.7h5.2v4.5h-5.2v27.5c0,2.6,0.7,3.9,2.1,3.9c0.9,0,1.9-0.4,2.9-1.2l1.1,4.3
			c-1.7,1-3.4,1.5-5.1,1.5c-4.4,0-6.6-3.2-6.6-9.7v-26.4H773.7z"/>
		<path class="st2" d="M810.7,368.3c-1.7,1.7-4.1,2.5-7.2,2.5c-3.1,0-5.6-1.1-7.5-3.3c-1.8-2.2-2.7-6.2-2.7-12v-11
			c0-5.8,0.9-9.8,2.7-12c1.8-2.2,4.4-3.3,7.7-3.3c3.3,0,5.8,1.1,7.5,3.3c1.7,2.2,2.6,6.2,2.6,12.1v7.8h-15v4.2
			c0,6.5,1.6,9.8,4.7,9.8c1.5,0,2.7-0.5,3.5-1.6c0.8-1.1,1.4-3.1,1.8-6l4.9,0.8C813.4,363.7,812.4,366.6,810.7,368.3z M798.9,343.4
			v4.2h9.4v-4.2c0-6.5-1.5-9.8-4.6-9.8C800.4,333.6,798.9,336.8,798.9,343.4z"/>
		<path class="st2" d="M834.3,329l1.5,0.1l-0.4,6.2c-0.7-0.3-1.3-0.5-2-0.5c-3.7,0-5.6,3.9-5.6,11.6v23.3h-5.6v-39.5h3.4l1.6,6.7
			C828.1,331.7,830.5,329,834.3,329z"/>
		<path class="st2" d="M839.4,369.7v-6.7h5.8v6.7H839.4z"/>
		<path class="st2" d="M851.4,321.8v-6.7h5.8v6.4l-2.9,9.1l-2.2-0.4l0.9-8.3H851.4z M859.7,321.8v-6.7h5.8v6.4l-2.9,9.1l-2.2-0.4
			l0.9-8.3H859.7z"/>
	</g>
	<g>
		<path class="st2" d="M342.1,146.2l-6.8,161.6c-0.5,13.6-2.7,25.9-6.5,37.2c-3.8,11.2-9.3,20.8-16.4,28.9
			c-7.1,8-16.1,14.2-26.8,18.6c-10.8,4.3-23.3,6.5-37.6,6.5c-8,0-16-1.2-24.1-3.5c-8.1-2.4-15.5-5.8-22.1-10.4
			c-6.6-4.6-12-10.3-16.1-16.9c-4.2-6.7-6.2-14.5-6.2-23.3c0-6.9,2.2-12.5,6.5-16.9c4.3-4.4,9.9-6.6,16.8-6.6
			c5.8,0,10.7,2.2,14.6,6.5c4,4.3,6,9.3,6,14.9c0,3.6-1.1,7-3.4,10c-2.3,3.1-4.9,5.3-8,6.8c4,5.2,9.1,9.2,15.5,11.9
			c6.3,2.7,12.7,4.1,19,4.1c9.4,0,16.9-2.4,22.6-7.1c5.7-4.7,10.1-10.6,13.2-17.6c3.1-7.1,5.2-14.7,6.4-22.9c1.2-8.2,2-16,2.6-23.2
			c0.4-7.4,0.6-14.7,0.7-21.8c0.1-7.1,0.3-14.3,0.7-21.6c-8.5,2.2-16.4,4-23.7,5.6c-7.3,1.5-15.3,2.3-24,2.3c-8.9,0-17.3-1-25.4-3
			c-8-2-15.1-5.2-21.2-9.5c-6.1-4.3-10.9-9.9-14.5-16.8c-3.6-6.9-5.4-15.2-5.4-24.9c0-2.7,0.5-6.4,1.5-11c1-4.6,2.2-9.4,3.5-14.2
			c1.4-4.9,2.8-9.6,4.2-14.1c1.4-4.5,2.5-8,3.3-10.3L152,122.3l93,32c-1.1,3.1-2.6,7.5-4.5,13.3c-1.9,5.8-3.8,11.8-5.8,18
			c-2,6.2-3.7,12.2-5.2,17.9c-1.4,5.7-2.2,9.9-2.2,12.6c0,4.5,1.1,8.4,3.3,11.7c2.2,3.3,4.9,6,8.3,8.1c3.3,2.2,7.1,3.8,11.1,4.7
			c4.1,1,8.1,1.5,12.1,1.5c4.7,0,10-0.4,15.9-1.4c5.9-0.9,11.1-2.3,15.6-4.3l0.5-67.5l-51.5-33.4L342.1,146.2z"/>
		<path class="st2" d="M530,127.7c0,3.3-0.6,6.4-1.9,9.5c-1.3,3.1-3,5.8-5.2,8.3c-2.2,2.4-4.7,4.4-7.6,6c-2.9,1.5-6,2.3-9.2,2.3
			c-6.7,0-12.1-2.3-16.1-7.1c-4.1-4.7-6.1-10.2-6.1-16.5v-1.1c-0.9-0.2-1.9,0.4-2.8,1.8c-1,1.4-2,2.9-3,4.7c-1,1.8-1.9,3.6-2.7,5.3
			c-0.8,1.7-1.4,2.9-1.8,3.7c10.8,6.1,19.5,14.3,25.9,24.5c6.4,10.2,9.6,21.6,9.6,34c0,9.8-2,18.9-6.1,27.4
			c-4.1,8.5-9.5,15.9-16.3,22.1c-6.8,6.2-14.6,11.1-23.5,14.6c-8.9,3.5-18.1,5.3-27.7,5.3c-3.6,0-7.2-0.1-10.8-0.4
			c-3.6-0.3-7.2-0.9-10.8-1.8c-2.5,1.6-3.8,3.5-3.8,5.7c0,2.2,1.8,3.8,5.3,5c3.5,1.2,7.5,2,11.9,2.6c4.4,0.5,8.8,0.9,13,1.1
			c4.2,0.2,7.1,0.3,8.5,0.3c9.8,0.5,19.3,2.3,28.5,5.2c9.2,2.9,17.4,7.1,24.5,12.6c7.1,5.5,12.8,12.3,17.1,20.5
			c4.2,8.1,6.4,17.6,6.4,28.5c0,11.4-2.9,21-8.7,28.7c-5.8,7.8-13.1,14-21.8,18.7c-8.8,4.7-18.4,8.1-28.7,10.2
			c-10.4,2.1-20.2,3.1-29.4,3.1c-9.4,0-19.3-1-29.7-3.1c-10.4-2.1-20-5.5-28.7-10.2c-8.8-4.7-16-10.9-21.8-18.7
			c-5.8-7.8-8.7-17.4-8.7-28.7c0-11.4,3.2-20.8,9.5-28.2c6.3-7.4,14.3-13.7,23.9-18.7c-4.7-2-8.8-4.6-12.2-7.9
			c-3.4-3.3-5.2-7.6-5.2-13c0-3.3,0.7-6.2,2-8.8c1.4-2.6,3.2-4.9,5.4-6.8c2.3-1.9,4.8-3.5,7.6-4.9c2.8-1.4,5.6-2.5,8.3-3.4
			c-9.8-6.3-17.6-14.4-23.6-24.3c-6-9.9-8.9-20.7-8.9-32.7c0-10.3,2.2-19.7,6.5-28.3c4.3-8.6,10.1-16,17.4-22.1
			c7.2-6.1,15.5-10.9,24.8-14.4c9.3-3.4,18.8-5.2,28.6-5.2c6.5,0,13.2,0.8,20.1,2.4c2-4.3,4.3-8.6,7.1-12.9
			c2.7-4.2,5.8-8.1,9.2-11.5c3.4-3.4,7.3-6.2,11.7-8.4c4.3-2.2,9.1-3.3,14.4-3.3c4,0,8.1,0.6,12.3,1.9c4.2,1.3,8.1,3.1,11.5,5.6
			c3.4,2.4,6.3,5.4,8.5,8.8C528.9,119.2,530,123.2,530,127.7z M483.1,351.7c0-6.7-1.3-12.5-3.8-17.4c-2.5-4.9-6-8.9-10.3-12.2
			s-9.3-5.7-14.9-7.2c-5.6-1.5-11.4-2.3-17.4-2.3c-6,0-11.8,0.8-17.4,2.3c-5.6,1.5-10.5,3.9-14.8,7.2c-4.2,3.3-7.6,7.3-10.2,12.2
			c-2.5,4.9-3.8,10.7-3.8,17.4c0,6.7,1.3,12.5,3.8,17.4c2.5,4.9,5.9,8.9,10.2,12.1c4.2,3.2,9.2,5.5,14.8,7.1
			c5.6,1.5,11.4,2.3,17.4,2.3c6,0,11.8-0.8,17.4-2.3c5.6-1.5,10.6-3.9,14.9-7.1c4.3-3.2,7.8-7.2,10.3-12.1
			C481.9,364.2,483.1,358.4,483.1,351.7z M467.9,203.1c0-5.1-0.7-10.5-2.2-16.4c-1.4-5.9-3.7-11.3-6.6-16.1
			c-3-4.9-6.7-8.9-11.3-12.2c-4.5-3.3-9.9-4.9-16-4.9c-6.1,0-11.5,1.6-16,4.9c-4.5,3.3-8.3,7.3-11.4,12.2c-3.1,4.9-5.4,10.2-6.9,16
			c-1.5,5.8-2.3,11.3-2.3,16.5c0,5.2,0.8,10.8,2.3,16.7c1.5,5.9,3.8,11.3,6.8,16.1c3,4.9,6.8,8.9,11.4,12.2c4.6,3.3,10,4.9,16.1,4.9
			c6.1,0,11.5-1.6,16-4.9c4.5-3.3,8.3-7.4,11.3-12.3c3-5,5.2-10.3,6.6-16.1C467.2,213.9,467.9,208.4,467.9,203.1z"/>
		<path class="st2" d="M709.3,208.5c0,12.5-3.1,23-9.4,31.6c-6.2,8.6-14.2,15.6-23.9,20.9c-9.7,5.3-20.2,9.2-31.6,11.7
			c-11.4,2.4-22.2,3.7-32.5,3.7c-10.1,0-20.7-1.3-31.6-3.8c-10.9-2.5-21-6.5-30.1-11.9c-9.1-5.4-16.6-12.4-22.5-21
			c-5.9-8.6-8.8-18.9-8.8-31.1c0-13.2,3.2-24.1,9.5-32.8c6.3-8.7,14.3-15.5,24-20.6c9.7-5.1,20.3-8.6,32-10.6c11.7-2,22.9-3,33.8-3
			c9.9,0,20.3,1.3,31.1,3.8c10.8,2.5,20.6,6.5,29.6,11.8c8.9,5.3,16.3,12.2,22,20.7C706.4,186.4,709.3,196.6,709.3,208.5z
			 M664.5,208c0-6.5-1.2-12.5-3.7-17.9c-2.4-5.4-5.8-10.1-10-14.1c-4.2-4-9.2-7.1-14.8-9.2c-5.6-2.2-11.6-3.3-17.9-3.3
			c-6.5,0-13,0.9-19.5,2.8s-12.4,4.7-17.6,8.3c-5.2,3.6-9.5,8.2-12.7,13.7c-3.3,5.5-4.9,11.8-4.9,18.8c0,7.1,1.1,13.5,3.4,19.3
			c2.3,5.8,5.5,10.8,9.8,14.9c4.2,4.2,9.3,7.4,15.1,9.6c5.8,2.3,12.2,3.4,19.3,3.4c7.6,0,14.6-0.9,21.2-2.6
			c6.5-1.7,12.2-4.5,17.1-8.3s8.7-8.6,11.4-14.5C663.2,223.1,664.5,216.1,664.5,208z"/>
		<path class="st2" d="M872,141.8c0,7.4-2.3,13.5-6.8,18.3c-4.5,4.8-10.6,7.2-18.2,7.2c-5.6,0-9.9-1-13-3.1
			c-3.1-2.1-5.7-4.4-7.7-7.1c-2.1-2.6-4.2-5-6.2-7.1c-2.1-2.1-5-3.1-8.8-3.1c-6.7,0-12,2.1-16,6.4c-4,4.2-7,9.3-8.9,15.1
			c-0.2,0.4-0.3,2.1-0.4,5.2c-0.1,3.1-0.2,7-0.4,11.7c-0.2,4.7-0.4,9.9-0.5,15.5c-0.2,5.6-0.4,10.9-0.5,16
			c-0.2,5.1-0.4,9.5-0.5,13.4c-0.2,3.9-0.3,6.5-0.3,7.7l65.9,23.9l-156.7,16c9.4-6,18.8-11.9,28.2-17.8c9.4-5.9,18.8-11.7,28.2-17.5
			l-10-94.6l-60.5-16.3l109.3-23.9l-0.5,24.9c7.6-5.2,15.4-9.7,23.5-13.4c8-3.7,16.9-5.6,26.7-5.6c3.3,0,6.6,0.4,10,1.1
			c3.4,0.7,6.7,1.8,9.8,3.3c3.1,1.4,5.8,3.4,8.1,5.8c2.3,2.4,4.1,5.4,5.2,8.8C871.5,135.9,872,138.9,872,141.8z"/>
	</g>
	<circle class="st2" cx="431.6" cy="220.8" r="11.7"/>
	<circle class="st2" cx="634.9" cy="202.3" r="15.4"/>
</g>
<g class="st0">
	<text transform="matrix(1 0 0 1 558.8569 376.0449)" class="st3 st4 st5">“Yes, Master.”</text>
	<text transform="matrix(1 0 0 1 168.5425 280.54)" class="st3 st6 st7">ygor</text>
	<circle class="st8" cx="431.6" cy="227.1" r="11.7"/>
	<circle class="st8" cx="634.9" cy="208.7" r="15.4"/>
</g>
</svg>
