<svg xmlns="http://www.w3.org/2000/svg" viewBox="0 0 1024 512"><defs><style>.a{fill:#7ac943;}</style></defs><title>fridge-Artboard 1</title><path class="a" d="M585.58,376.9h-6.21V358.25l-10.52-37.13h6.21l7.41,28.77,7.33-28.77H596l-10.44,37.13Z"/><path class="a" d="M616.81,375.39q-2.71,2.71-7.85,2.71a10,10,0,0,1-8.13-3.63q-3-3.62-3-13.11v-12q0-9.48,3-13.11a10.28,10.28,0,0,1,8.41-3.63q5.42,0,8.21,3.59t2.79,13.15v8.53H603.91v4.54q0,10.68,5.1,10.68a4.55,4.55,0,0,0,3.82-1.75q1.35-1.75,1.91-6.53l5.34.88Q619.52,372.68,616.81,375.39Zm-12.91-27.09v4.54h10.2v-4.54q0-10.68-5-10.68Q603.9,337.62,603.91,348.29Z"/><path class="a" d="M643.35,367.26a8,8,0,0,0-3.35-6.93l-5.5-3.9q-6.14-4.06-6.14-12,0-6.45,2.75-9.08a12,12,0,0,1,14.78-.16q2.63,2.47,3.19,9l-5.5,1.12q-.4-7.73-4.9-7.73t-4.5,6.3q0,5.1,3.35,7.57l5.26,3.67a27.3,27.3,0,0,1,3.15,2.43,10.73,10.73,0,0,1,2.23,3.59,14.77,14.77,0,0,1,1.08,5.86q0,6.14-2.87,8.65a11.39,11.39,0,0,1-7.77,2.51,10.15,10.15,0,0,1-7.69-2.91q-2.79-2.91-3.43-10.24l5.66-1q.32,5.18,1.63,7.25a4.08,4.08,0,0,0,3.63,2.07Q643.35,373.23,643.35,367.26Z"/><path class="a" d="M655.86,376.9v-7.33h6.3v7L659,386.46l-2.39-.48,1-9.08Z"/><path class="a" d="M688.21,376.9H682V321.12h9.72l6.77,38.65,6.85-38.65h9.72V376.9h-6.21V326.54l-6.77,38.41H695l-6.77-38.41Z"/><path class="a" d="M725.89,353.27a8.51,8.51,0,0,1,12.91.44v-8.37q0-7.65-4.78-7.65-4.06,0-7.73,4.7l-2.15-4.46a15.24,15.24,0,0,1,4.66-3.74,12.11,12.11,0,0,1,5.78-1.51q10.36,0,10.36,14v30.2h-3.74l-1.28-5.18A8.81,8.81,0,0,1,737,376.5a7.23,7.23,0,0,1-4.58,1.59,7.92,7.92,0,0,1-6.53-2.75q-2.23-2.75-2.23-10.32v-1.43Q723.66,356,725.89,353.27Zm7.81,19.8a4.36,4.36,0,0,0,3.63-1.67q1.31-1.67,1.47-6.06v-2.15q-.16-4.7-1.47-6.53a4.22,4.22,0,0,0-3.63-1.83q-4,0-4,7.57v3.11Q729.72,373.08,733.7,373.08Z"/><path class="a" d="M768.6,367.26a8,8,0,0,0-3.35-6.93l-5.5-3.9q-6.14-4.06-6.14-12,0-6.45,2.75-9.08a12,12,0,0,1,14.78-.16q2.63,2.47,3.19,9l-5.5,1.12q-.4-7.73-4.9-7.73t-4.5,6.3q0,5.1,3.35,7.57l5.26,3.67a27.3,27.3,0,0,1,3.15,2.43,10.73,10.73,0,0,1,2.23,3.59,14.77,14.77,0,0,1,1.08,5.86q0,6.14-2.87,8.65a11.39,11.39,0,0,1-7.77,2.51,10.15,10.15,0,0,1-7.69-2.91q-2.79-2.91-3.43-10.24l5.66-1q.32,5.18,1.63,7.25a4.08,4.08,0,0,0,3.63,2.07Q768.6,373.23,768.6,367.26Z"/><path class="a" d="M779.36,338.81v-4.94h4.22l2.15-10.6h3.67v10.6h5.66v4.94H789.4v30q0,4.22,2.31,4.22a5.34,5.34,0,0,0,3.19-1.27l1.2,4.7a10.49,10.49,0,0,1-5.58,1.67q-7.17,0-7.17-10.6V338.81Z"/><path class="a" d="M819.68,375.39q-2.71,2.71-7.85,2.71a10,10,0,0,1-8.13-3.63q-3-3.62-3-13.11v-12q0-9.48,3-13.11a10.28,10.28,0,0,1,8.41-3.63q5.42,0,8.21,3.59t2.79,13.15v8.53H806.77v4.54q0,10.68,5.1,10.68a4.55,4.55,0,0,0,3.82-1.75q1.35-1.75,1.91-6.53l5.34.88Q822.39,372.68,819.68,375.39Zm-12.91-27.09v4.54H817v-4.54q0-10.68-5-10.68Q806.77,337.62,806.77,348.29Z"/><path class="a" d="M845.33,332.68l1.59.08-.48,6.77a4.82,4.82,0,0,0-2.15-.56q-6.06,0-6.14,12.59V376.9H832v-43h3.74l1.75,7.33Q839.12,332.68,845.33,332.68Z"/><path class="a" d="M342.1,146.17,335.32,307.8a131.88,131.88,0,0,1-6.51,37.15,83.09,83.09,0,0,1-16.41,28.88,70.59,70.59,0,0,1-26.85,18.58q-16.14,6.51-37.56,6.51a86.73,86.73,0,0,1-24.14-3.53,74.3,74.3,0,0,1-22.1-10.44A57.61,57.61,0,0,1,185.63,368a43.24,43.24,0,0,1-6.24-23.32q0-10.31,6.51-16.95t16.81-6.64a19.1,19.1,0,0,1,14.64,6.51,21.45,21.45,0,0,1,6,14.92,16.6,16.6,0,0,1-3.39,10,21.13,21.13,0,0,1-8,6.78,37.57,37.57,0,0,0,15.46,11.93,47.84,47.84,0,0,0,19,4.07q14.1,0,22.64-7.05a46.69,46.69,0,0,0,13.15-17.63,88.52,88.52,0,0,0,6.37-22.92q1.76-12.34,2.58-23.19.54-11.12.68-21.83t.68-21.56q-12.75,3.25-23.73,5.56a116.8,116.8,0,0,1-24,2.31,105.16,105.16,0,0,1-25.36-3,61,61,0,0,1-21.15-9.49,47.53,47.53,0,0,1-14.51-16.81q-5.43-10.3-5.42-24.95a55.1,55.1,0,0,1,1.49-11q1.49-6.92,3.53-14.24t4.2-14.1q2.17-6.78,3.25-10.3L152,122.31l93,32q-1.63,4.61-4.47,13.29t-5.83,18q-3,9.36-5.15,17.9t-2.17,12.61a20.53,20.53,0,0,0,3.25,11.66,28.35,28.35,0,0,0,8.27,8.14A35.88,35.88,0,0,0,250,240.68a50.61,50.61,0,0,0,12.07,1.49A105,105,0,0,0,278,240.81a62,62,0,0,0,15.59-4.34l.54-67.53-51.53-33.36Z"/><path class="a" d="M530,127.73a24.75,24.75,0,0,1-1.9,9.49,29,29,0,0,1-5.15,8.27,27.07,27.07,0,0,1-7.59,6,19.36,19.36,0,0,1-9.22,2.31q-10,0-16.14-7.05a24.47,24.47,0,0,1-6.1-16.54v-1.08c-.91-.18-1.86.41-2.85,1.76a43.09,43.09,0,0,0-3,4.75q-1.49,2.71-2.71,5.29t-1.76,3.66a71.9,71.9,0,0,1,25.9,24.54,64.78,64.78,0,0,1,3.53,61.42,71.89,71.89,0,0,1-16.27,22.1,75.61,75.61,0,0,1-23.46,14.64,74.15,74.15,0,0,1-27.66,5.29q-5.43,0-10.85-.41A64.18,64.18,0,0,1,414,270.37q-3.8,2.44-3.8,5.69t5.29,5a61.45,61.45,0,0,0,11.93,2.58q6.64.81,13,1.08t8.54.27a116.21,116.21,0,0,1,28.47,5.15A77.83,77.83,0,0,1,502,302.78a61.52,61.52,0,0,1,17.08,20.47q6.37,12.2,6.37,28.47,0,17.08-8.68,28.75a65.36,65.36,0,0,1-21.83,18.71,103.49,103.49,0,0,1-28.75,10.17,141.64,141.64,0,0,1-59.12,0,103.39,103.39,0,0,1-28.75-10.17,65.28,65.28,0,0,1-21.83-18.71q-8.68-11.66-8.68-28.75t9.49-28.2a80,80,0,0,1,23.86-18.71,40.47,40.47,0,0,1-12.2-7.86q-5.15-4.88-5.15-13a18.89,18.89,0,0,1,2-8.81,21.91,21.91,0,0,1,5.42-6.78,36.26,36.26,0,0,1,7.59-4.88,69.9,69.9,0,0,1,8.27-3.39,74.66,74.66,0,0,1-23.59-24.27,64.51,64.51,0,0,1-2.44-61,70.33,70.33,0,0,1,17.36-22.1,83.67,83.67,0,0,1,53.42-19.53,87,87,0,0,1,20.07,2.44A106.1,106.1,0,0,1,459,122.71a68,68,0,0,1,9.22-11.53,44.62,44.62,0,0,1,11.66-8.41,31.68,31.68,0,0,1,14.37-3.25,43.26,43.26,0,0,1,12.34,1.9A39,39,0,0,1,518.1,107a33.09,33.09,0,0,1,8.54,8.81A21.23,21.23,0,0,1,530,127.73Zm-46.92,224a37.26,37.26,0,0,0-3.8-17.36,35.47,35.47,0,0,0-10.3-12.2A43.94,43.94,0,0,0,454.1,315a66.5,66.5,0,0,0-34.71,0,42.42,42.42,0,0,0-14.78,7.19,36,36,0,0,0-10.17,12.2,41.57,41.57,0,0,0,0,34.71,34.74,34.74,0,0,0,10.17,12.07,44,44,0,0,0,14.78,7.05,66.5,66.5,0,0,0,34.71,0A45.58,45.58,0,0,0,469,381.15a34.22,34.22,0,0,0,10.3-12.07A37.27,37.27,0,0,0,483.12,351.73ZM467.93,203.12a69,69,0,0,0-2.17-16.41,56.85,56.85,0,0,0-6.64-16.14,41.59,41.59,0,0,0-11.25-12.2,28.66,28.66,0,0,0-32,0,43.21,43.21,0,0,0-11.39,12.2,57.42,57.42,0,0,0-6.92,16,64.41,64.41,0,0,0-2.3,16.54,65.9,65.9,0,0,0,2.3,16.68,59.62,59.62,0,0,0,6.78,16.14,40.82,40.82,0,0,0,11.39,12.2A27.26,27.26,0,0,0,431.86,253a26.66,26.66,0,0,0,16-4.88,41,41,0,0,0,11.25-12.34,59,59,0,0,0,6.64-16.14A68.28,68.28,0,0,0,467.93,203.12Z"/><path class="a" d="M709.29,208.54q0,18.71-9.36,31.59A72,72,0,0,1,676.07,261a114.83,114.83,0,0,1-31.59,11.66,155.39,155.39,0,0,1-32.54,3.66,140.13,140.13,0,0,1-31.59-3.8,104.68,104.68,0,0,1-30.1-11.93,70.52,70.52,0,0,1-22.51-21q-8.82-12.88-8.81-31.05,0-19.79,9.49-32.81a68.68,68.68,0,0,1,24-20.61,107.65,107.65,0,0,1,32-10.58,201,201,0,0,1,33.76-3,135.59,135.59,0,0,1,31.05,3.8,104,104,0,0,1,29.56,11.8,68,68,0,0,1,22,20.75Q709.29,190.65,709.29,208.54ZM664.54,208a43.11,43.11,0,0,0-3.66-17.9,43.68,43.68,0,0,0-10-14.1,45.43,45.43,0,0,0-14.78-9.22,49.15,49.15,0,0,0-17.9-3.25,69.43,69.43,0,0,0-19.53,2.85A60.79,60.79,0,0,0,581,174.64a43,43,0,0,0-12.75,13.69,36.38,36.38,0,0,0-4.88,18.85,52.43,52.43,0,0,0,3.39,19.25,41.86,41.86,0,0,0,9.76,14.91A44.17,44.17,0,0,0,591.59,251a52.45,52.45,0,0,0,19.25,3.39A82.59,82.59,0,0,0,632,251.8a47,47,0,0,0,17.08-8.27A38.47,38.47,0,0,0,660.47,229Q664.54,220.21,664.54,208Z"/><path class="a" d="M872,141.83q0,11.12-6.78,18.31t-18.17,7.19q-8.41,0-13-3.12a34,34,0,0,1-7.73-7.05,83.46,83.46,0,0,0-6.24-7.05q-3.12-3.11-8.81-3.12-10,0-16,6.37a41.4,41.4,0,0,0-8.95,15.05,24.71,24.71,0,0,0-.41,5.15q-.14,4.61-.41,11.66t-.54,15.46q-.27,8.41-.54,16t-.54,13.42q-.27,5.83-.27,7.73l65.9,23.86-156.75,16q14.1-8.95,28.2-17.76t28.2-17.49l-10-94.64-60.47-16.27,109.29-23.86-.54,24.95a156.75,156.75,0,0,1,23.46-13.42,63.12,63.12,0,0,1,26.71-5.56,48.86,48.86,0,0,1,10,1.08,44.48,44.48,0,0,1,9.76,3.25,27.48,27.48,0,0,1,8.14,5.83,22.14,22.14,0,0,1,5.15,8.81A34.6,34.6,0,0,1,872,141.83Z"/><circle class="a" cx="431.55" cy="220.78" r="11.74"/><circle class="a" cx="634.92" cy="202.32" r="15.35"/></svg>